<?xml version="1.0" standalone="no"?>
<!DOCTYPE svg PUBLIC "-//W3C//DTD SVG 20010904//EN"
 "http://www.w3.org/TR/2001/REC-SVG-20010904/DTD/svg10.dtd">
<svg version="1.0" xmlns="http://www.w3.org/2000/svg"
 width="826.000000pt" height="851.000000pt" viewBox="0 0 826.000000 851.000000"
 preserveAspectRatio="xMidYMid meet">

<g transform="translate(0.000000,851.000000) scale(0.100000,-0.100000)"
fill="#000000" stroke="none">
<path d="M4607 8322 l-177 -177 1735 -1735 c954 -954 1735 -1739 1735 -1745 0
-5 -315 -325 -700 -710 l-700 -700 180 -180 180 -180 700 700 700 700 0 370 0
370 -1733 1733 c-952 952 -1734 1732 -1737 1732 -3 0 -85 -80 -183 -178z"/>
<path d="M2582 3477 l-222 -222 183 -183 183 -182 42 43 42 43 -2 362 -3 362
-223 -223z"/>
<path d="M5320 1987 l0 -1717 365 0 365 0 0 1353 0 1352 -365 365 -365 365 0
-1718z"/>
</g>
</svg>
